<?xml version="1.0" encoding="UTF-8" standalone="no"?>
<svg
   version="1.1"
   width="729"
   height="162"
   id="svg12"
   sodipodi:docname="Screenshot_2025(1).svg"
   xmlns:inkscape="http://www.inkscape.org/namespaces/inkscape"
   xmlns:sodipodi="http://sodipodi.sourceforge.net/DTD/sodipodi-0.dtd"
   xmlns="http://www.w3.org/2000/svg"
   xmlns:svg="http://www.w3.org/2000/svg">
  <defs
     id="defs12" />
  <sodipodi:namedview
     id="namedview12"
     pagecolor="#ffffff"
     bordercolor="#000000"
     borderopacity="0.25"
     inkscape:showpageshadow="2"
     inkscape:pageopacity="0.0"
     inkscape:pagecheckerboard="0"
     inkscape:deskcolor="#d1d1d1">
    <inkscape:page
       x="0"
       y="0"
       width="729"
       height="162"
       id="page2"
       margin="0"
       bleed="0" />
  </sodipodi:namedview>
  <path
     d="m 186.58594,59.125 c 5.52856,4.294027 10.23444,9.471652 14.92578,14.644531 2.62552,2.353492 3.5426,2.916132 6.98828,2.855469 3.47933,-0.207377 4.37985,-0.532155 7.25,-2.75 1.49212,-1.906599 2.9715,-3.823249 4.4375,-5.75 8.2605,-10.015848 20.36422,-14.281063 32.84473,-15.74585 12.32842,-1.143949 23.71851,2.616311 33.37402,10.253662 C 288,64 288,64 290,66 c 3.03948,0.590402 6.08052,0.955399 9.15235,1.339844 3.02207,0.700591 4.08833,1.150194 5.84765,3.660156 1.12744,5.290286 1.44025,9.003312 -1,14 -0.69738,0.4125 -1.39476,0.825 -2.11328,1.25 -0.62262,0.5775 -1.24523,1.155 -1.88672,1.75 -0.10947,3.133863 -0.10947,3.133863 0.5,6.6875 1.27387,11.92646 -1.62745,23.10076 -8.58203,32.97656 -7.1283,8.68172 -16.41608,14.36289 -27.65234,15.82031 -14.59022,1.11205 -26.99516,-1.21598 -38.76172,-10.4414 C 218.93436,126.74663 214.77452,119.61561 212,111 c 0,-0.99 0,-1.98 0,-3 -2.31,0 -4.62,0 -7,0 -0.14695,0.53367 -0.2939,1.06734 -0.44531,1.61719 -3.55814,11.81958 -10.24769,21.98417 -21.11719,28.19531 -1.47352,0.7405 -2.95226,1.47077 -4.4375,2.1875 -1.03125,0.5775 -2.0625,1.155 -3.125,1.75 -8.79274,3.61571 -21.73457,3.5559 -30.65234,0.20703 -12.12131,-5.28782 -21.79575,-13.0446 -27.30078,-25.37109 -3.05109,-9.18319 -3.19738,-19.076209 -2.66407,-28.660159 C 115.1302,86.97252 115.1302,86.97252 115,86 c -0.99,-0.66 -1.98,-1.32 -3,-2 -1.55188,-4.655659 -1.32795,-8.551529 -0.25,-13.3125 3.22555,-3.852737 6.35274,-3.440015 11.1836,-4.003906 4.21541,-0.939742 6.21844,-2.978561 9.23046,-5.941407 13.56346,-12.87085 39.71384,-11.198968 54.42188,-1.617187 z m -50.31641,17.988281 c -0.48082,0.725742 -0.96164,1.451485 -1.45703,2.199219 -0.48855,0.718008 -0.97711,1.436016 -1.48047,2.175781 C 129.26572,89.15585 129.00883,97.532294 130,106 c 3.23525,9.3171 7.99325,16.38767 16.77735,20.92969 7.47461,3.59937 14.75576,4.28187 22.78515,2.00781 7.32142,-2.77307 13.61634,-7.77565 17.4375,-14.64844 4.27537,-9.78657 5.17582,-19.444978 1.6875,-29.60156 C 187.18736,81.120973 185.3708,78.059092 183,75 c -0.66,0 -1.32,0 -2,0 0,-0.66 0,-1.32 0,-2 -14.98055,-8.722012 -32.35729,-10.997079 -44.73047,4.113281 z M 230.6875,79.8125 c -4.83283,9.128674 -6.17908,18.300394 -3.5,28.3125 3.07063,9.02794 7.30133,14.4035 15.8125,18.875 7.94787,3.68859 15.81411,4.39022 24.125,1.4375 8.69509,-3.89027 15.13042,-10.4539 18.6211,-19.33594 2.9235,-9.879408 1.63944,-19.386351 -2.92969,-28.449216 C 278.4318,73.212173 272.35523,69.680964 264.4375,66.625 c -14.00793,-2.546897 -24.8036,2.306751 -33.75,13.1875 z"
     fill="#e9850d"
     id="path1" />
  <path
     d="m 34.101562,25.854736 c 1.307714,-0.0096 1.307714,-0.0096 2.641846,-0.01933 0.950925,-0.0011 1.90185,-0.0022 2.881592,-0.0034 0.976061,-0.0033 1.952123,-0.0067 2.957763,-0.01009 2.074784,-0.0051 4.149576,-0.0074 6.224365,-0.0072 3.151671,-0.0022 6.302982,-0.02027 9.45459,-0.03931 2.016926,-0.0029 4.033854,-0.0049 6.050781,-0.0059 1.402098,-0.01078 1.402098,-0.01078 2.83252,-0.02177 11.315502,0.03881 21.250286,2.548189 30.003418,10.107711 5.568653,5.885859 7.890653,12.101577 8.289063,20.144532 -0.22645,6.6185 -2.5804,11.741364 -6.750001,16.8125 -3.091989,2.516735 -6.166822,4.323611 -9.6875,6.1875 0.663868,0.302929 1.327735,0.605859 2.011719,0.917968 7.993455,3.792515 14.550502,8.38468 17.714842,17.078125 2.40333,8.988458 1.3624,17.534938 -3.16015,25.652348 -6.416157,9.63223 -15.115083,14.20836 -26.205479,16.92621 -4.439925,0.79991 -8.89001,0.68868 -13.388275,0.65582 -1.029523,-4.6e-4 -2.059046,-9.1e-4 -3.119766,-10e-4 -2.160692,-0.003 -4.321383,-0.0108 -6.482041,-0.0233 -3.322261,-0.0184 -6.644245,-0.0205 -9.966553,-0.0203 -2.102216,-0.005 -4.20443,-0.0107 -6.30664,-0.0176 -1.496715,-0.002 -1.496715,-0.002 -3.023667,-0.003 -1.372617,-0.01 -1.372617,-0.01 -2.772964,-0.0193 -0.8086,-0.004 -1.617199,-0.008 -2.450302,-0.0115 C 30,140.00075 30,140.00075 29,139.00075 c -0.09778,-1.45248 -0.126318,-2.9097 -0.126984,-4.36547 -0.0028,-0.94232 -0.0056,-1.88463 -0.0085,-2.8555 0.002,-1.04212 0.004,-2.08424 0.0061,-3.15793 -0.0026,-1.63641 -0.0026,-1.63641 -0.0053,-3.30588 -0.0044,-3.62593 -0.0015,-7.2518 0.0019,-10.87772 -6.73e-4,-2.50724 -0.0016,-5.01449 -0.0029,-7.52173 -0.0015,-5.26262 5.84e-4,-10.525224 0.0053,-15.787841 0.0054,-6.092211 0.0037,-12.18439 -0.0018,-18.2766 -0.0051,-5.85034 -0.0045,-11.700666 -0.0016,-17.551006 6.7e-4,-2.494405 -1.6e-4,-4.988811 -0.0025,-7.483215 -0.0025,-3.479424 0.0013,-6.958783 0.0069,-10.438202 -0.002,-1.042116 -0.004,-2.084233 -0.0061,-3.157929 0.0028,-0.942314 0.0056,-1.884629 0.0085,-2.855499 5.65e-4,-1.235559 5.65e-4,-1.235559 0.0011,-2.496078 0.239001,-3.550978 2.139015,-3.000126 5.227416,-3.015414 z M 52.999999,46 c 0,8.58 0,17.16 0,26 13.794939,0.446829 13.794939,0.446829 26,-5 2.572775,-4.230584 2.543416,-8.178263 2,-13 -1.335022,-3.411723 -2.436813,-4.634809 -5.5,-6.621094 -4.591299,-1.808849 -8.500884,-1.708432 -13.375,-1.566406 -3.01125,0.06188 -6.0225,0.12375 -9.125,0.1875 z m 0,45 c -0.02466,4.111725 -0.04284,8.223422 -0.05493,12.33521 -0.005,1.39974 -0.01187,2.79948 -0.02051,4.19921 -0.01208,2.00804 -0.01726,4.01611 -0.02222,6.02417 -0.0052,1.20971 -0.01047,2.41941 -0.01587,3.66578 -0.204227,2.68375 -0.204227,2.68375 1.113525,3.77563 14.29611,0.99048 14.29611,0.99048 27,-4.375 3.929661,-5.15768 4.865873,-9.20672 4,-15.625 -1.278807,-3.78556 -3.103901,-6.38106 -6.4375,-8.683594 -5.024203,-1.856531 -9.631316,-1.637417 -14.9375,-1.503906 -1.022226,0.01354 -2.044453,0.02707 -3.097656,0.04102 -2.509664,0.03518 -5.018224,0.08441 -7.527344,0.146485 z"
     fill="#f0f0ef"
     id="path2" />
  <path
     d="m 393,26 c 5.31615,-0.05001 10.63216,-0.086 15.94849,-0.109863 1.80275,-0.01 3.6055,-0.02354 5.4082,-0.04102 16.9525,-0.160062 33.86434,-0.294186 47.60034,11.10791 7.41046,7.41046 9.53882,15.791485 10.35547,25.917969 C 471.99258,72.171392 469.42747,80.235779 463,87 c -0.57621,0.616172 -1.15242,1.232344 -1.74609,1.867187 -7.24856,7.022507 -17.34944,11.289233 -27.45704,11.230473 -0.88333,-0.002 -1.76666,-0.005 -2.67675,-0.008 -1.11214,-0.009 -2.22428,-0.0182 -3.37012,-0.0276 -3.5475,-0.0206 -7.095,-0.0413 -10.75,-0.0625 0,12.87 0,25.74 0,39 -4.79962,1.91985 -7.44719,2.29734 -12.5,2.3125 -1.28906,0.0168 -2.57813,0.0335 -3.90625,0.0508 C 396.68772,140.96843 395.00279,140.49123 392,138 c -0.57556,-3.10527 -0.57556,-3.10527 -0.50586,-6.98706 0.006,-0.70824 0.0114,-1.41647 0.0172,-2.14617 0.0247,-2.3563 0.0849,-4.71034 0.14488,-7.06599 0.0242,-1.66384 0.046,-3.32772 0.0655,-4.99162 0.0452,-3.49875 0.10489,-6.99682 0.17615,-10.49513 0.10296,-5.12875 0.16505,-10.257288 0.21533,-15.386784 0.0924,-9.078732 0.21697,-18.156772 0.35028,-27.234985 0.0623,-4.279555 0.12145,-8.559152 0.18097,-12.838745 C 392.76016,42.568968 392.87896,34.28447 393,26 Z m 24,21 c 0,10.89 0,21.78 0,33 13.35641,0.597951 13.35641,0.597951 25,-4 4.30339,-5.143076 5.44273,-9.359116 5,-16 -1.66023,-5.15546 -3.35407,-8.149089 -8,-11 -8.19046,-2.686803 -8.19046,-2.686803 -22,-2 z"
     fill="#efefee"
     id="path3" />
  <path
     d="m 313.875,19.867187 c 0.98484,-0.0013 1.96969,-0.0026 2.98437,-0.0039 1.03641,0.0039 2.07282,0.0077 3.14063,0.01172 1.55461,-0.0058 1.55461,-0.0058 3.14062,-0.01172 0.98485,0.0013 1.96969,0.0026 2.98438,0.0039 0.91008,0.0011 1.82016,0.0023 2.75781,0.0034 C 331,20 331,20 332,21 c 0.0942,2.116813 0.11743,4.236807 0.11352,6.355712 1.5e-4,0.663389 3e-4,1.326778 4.5e-4,2.01027 -7e-4,2.202257 -0.008,4.404431 -0.0163,6.606674 -0.002,1.523147 -0.003,3.046295 -0.004,4.569442 -0.004,4.016278 -0.0137,8.03252 -0.0247,12.048783 -0.0102,4.095352 -0.0148,8.19071 -0.0198,12.286072 -0.0107,8.041032 -0.0278,16.082035 -0.0488,24.123046 0.53109,-0.801716 1.06219,-1.603432 1.60937,-2.429443 0.70641,-1.063557 1.41281,-2.127114 2.14063,-3.2229 0.69609,-1.049217 1.39218,-2.098433 2.10937,-3.179444 3.25423,-4.816373 6.69515,-9.487918 10.14064,-14.168213 2.14612,-2.959786 4.28999,-5.921199 6.43359,-8.882812 C 356,54.999999 356,54.999999 357,53.999999 c 1.8537,-0.08738 3.71067,-0.106981 5.56641,-0.09766 1.1247,0.0032 2.24941,0.0064 3.4082,0.0098 1.184,0.0084 2.36801,0.01676 3.58789,0.02539 1.18787,0.0045 2.37574,0.009 3.59961,0.01367 2.94601,0.01183 5.89193,0.02832 8.83789,0.04883 0,4.249739 -0.15146,4.685226 -2.64063,7.765625 -0.85621,1.076771 -0.85621,1.076771 -1.72973,2.175293 -0.62028,0.761998 -1.24056,1.523995 -1.87964,2.309082 -1.28099,1.611151 -2.56092,3.223148 -3.83984,4.835938 -0.65082,0.815654 -1.30164,1.631309 -1.97217,2.47168 -2.96483,3.736468 -5.8691,7.516365 -8.75049,11.317382 -0.50886,0.659034 -1.01772,1.318067 -1.54199,1.997071 -3.20951,4.179016 -3.20951,4.179016 -4.64551,9.127929 1.37803,2.185427 2.73262,4.030971 4.375,6.000001 0.93438,1.16473 1.86796,2.33011 2.80078,3.49609 0.47518,0.58637 0.95036,1.17273 1.43994,1.77686 2.04437,2.55059 3.99506,5.16769 5.94678,7.78955 2.28236,3.06072 4.56946,6.11618 6.89453,9.14453 0.79793,1.04543 1.59586,2.09086 2.41797,3.16797 0.7193,0.93586 1.43859,1.87172 2.17969,2.83594 1.97032,2.82493 3.48455,5.67462 4.94531,8.78906 -5.47868,1.82623 -10.36498,2.36545 -16.125,2.375 -1.17756,0.0367 -1.17756,0.0367 -2.37891,0.0742 -3.63926,0.0184 -5.93664,-0.14123 -9.16406,-1.91797 -3.26292,-3.54167 -5.875,-7.38989 -8.51953,-11.40626 C 344.36828,119.95526 338.71391,111.99947 333,104 c -0.33,11.55 -0.66,23.1 -1,35 -5.52895,1.5797 -8.75168,2.25296 -14.25,2.1875 -1.80211,-0.01 -1.80211,-0.01 -3.64063,-0.0195 C 311,141 311,141 308,140 c -0.0233,-15.4984 -0.041,-30.9968 -0.0518,-46.495208 -0.005,-7.195695 -0.0122,-14.39138 -0.0236,-21.587068 -0.01,-6.269571 -0.0164,-12.539135 -0.0186,-18.808714 -0.001,-3.321667 -0.005,-6.643305 -0.0116,-9.964966 -0.007,-3.702244 -0.008,-7.404441 -0.008,-11.106691 -0.004,-1.109143 -0.007,-2.218285 -0.0109,-3.361038 0.001,-1.002659 0.003,-2.005318 0.004,-3.038361 -9.3e-4,-0.876625 -0.002,-1.75325 -0.003,-2.65644 0.24363,-3.9233 2.62625,-3.110148 5.99805,-3.114327 z"
     fill="#efefee"
     id="path4" />
  <path
     d="m 621.89844,64.304687 c 7.52221,5.814109 12.1226,14.615406 13.62109,23.921875 1.24187,14.405678 -2.18353,24.506688 -10.89502,35.872808 -3.67621,3.61224 -7.11449,3.63226 -12.10426,3.70866 -1.09078,-0.0153 -2.18157,-0.0306 -3.3054,-0.0463 -1.13385,0.003 -2.2677,0.007 -3.4359,0.0102 -2.39129,-3e-4 -4.78261,-0.0155 -7.17372,-0.0446 -3.65931,-0.0397 -7.315,-0.0207 -10.97437,0.005 -2.32618,-0.008 -4.65236,-0.0185 -6.97851,-0.0332 -1.63921,0.0105 -1.63921,0.0105 -3.31154,0.0212 -7.5903,-0.14112 -7.5903,-0.14112 -11.46312,-3.1303 -0.61964,-0.85472 -1.23927,-1.70945 -1.87769,-2.59008 -0.55945,-0.70641 -1.1189,-1.41282 -1.69531,-2.14063 -6.87802,-10.1479 -8.58987,-19.72891 -7.30469,-31.859374 1.63581,-8.432182 5.169,-14.758717 11,-20.999999 0.51176,-0.56461 1.02352,-1.129219 1.55078,-1.710938 C 582.75322,50.426136 605.7861,53.2316 621.89844,64.304687 Z M 596,72 c -2.40216,4.80432 -2.61122,9.731038 -3,14.999999 -1.73636,0.705762 -1.73636,0.705762 -3.50781,1.425782 -1.53911,0.628784 -3.07817,1.257697 -4.61719,1.886718 -1.14082,0.463096 -1.14082,0.463096 -2.30468,0.935547 -4.28573,1.754929 -8.45584,3.615844 -12.57032,5.751953 0.33,1.32 0.66,2.64 1,4.000001 2.70919,-0.62148 5.41731,-1.247066 8.125,-1.875001 0.76055,-0.174023 1.5211,-0.348046 2.30469,-0.527343 4.27757,-0.995641 8.42437,-2.12737 12.57031,-3.597657 -0.0603,2.229908 -0.14923,4.459054 -0.25,6.687501 -0.0696,1.86205 -0.0696,1.86205 -0.14062,3.76172 -0.68076,3.9667 -1.86276,5.67782 -4.60938,8.55078 1.58368,-0.14205 3.16694,-0.2888 4.75,-0.4375 0.88172,-0.0812 1.76344,-0.16242 2.67188,-0.24609 2.27163,-0.27879 4.37664,-0.70432 6.57812,-1.31641 -0.65484,-0.34676 -1.30968,-0.69352 -1.98437,-1.05078 C 599,109 599,109 598.60938,105.64453 c 0.0464,-1.26457 0.0928,-2.52914 0.14062,-3.83203 0.0361,-1.2723 0.0722,-2.54461 0.10938,-3.855469 0.0464,-0.975821 0.0928,-1.951641 0.14062,-2.957032 0.90621,0.277149 1.81242,0.554297 2.7461,0.839844 6.75856,2.009689 13.1895,3.672956 20.2539,4.160156 -0.14247,-1.949326 -0.14247,-1.949326 -1,-4 -2.06117,-1.28639 -2.06117,-1.28639 -4.65625,-2.148437 -0.93972,-0.366094 -1.87945,-0.732187 -2.84765,-1.109375 -1.99485,-0.743842 -3.99227,-1.480848 -5.99219,-2.210938 -2.64177,-1.036415 -5.08871,-2.039846 -7.50391,-3.53125 -1.12109,-2.984375 -1.12109,-2.984375 -1,-6 -0.10441,-0.843046 -0.20883,-1.686093 -0.3164,-2.554687 -0.0812,-0.765703 -0.16243,-1.531406 -0.2461,-2.320312 -0.12568,-1.171758 -0.12568,-1.171758 -0.2539,-2.367188 C 598.12301,73.177734 598.06242,72.597656 598,72 c -0.66,0 -1.32,0 -2,0 z"
     fill="#ec860b"
     id="path5" />
  <path
     d="m 524.875,19.867187 c 0.98484,-0.0013 1.96969,-0.0026 2.98437,-0.0039 1.03641,0.0039 2.07282,0.0077 3.14063,0.01172 1.55461,-0.0058 1.55461,-0.0058 3.14062,-0.01172 0.98485,0.0013 1.96969,0.0026 2.98438,0.0039 0.91008,0.0011 1.82016,0.0023 2.75781,0.0034 C 542,20 542,20 543,21 c 0.0955,1.429464 0.12188,2.863626 0.12026,4.296279 10e-4,0.926932 0.003,1.853864 0.004,2.808884 -0.004,1.024986 -0.007,2.049972 -0.0109,3.106018 1.4e-4,1.073039 2.9e-4,2.146078 4.4e-4,3.251633 -7e-4,3.565801 -0.009,7.13155 -0.0163,10.697342 -0.002,2.464797 -0.003,4.929595 -0.004,7.394394 -0.004,6.501989 -0.0137,13.003955 -0.0247,19.505935 -0.0107,6.628923 -0.0148,13.257851 -0.0198,19.88678 -0.0107,13.017585 -0.0276,26.035165 -0.0488,39.052735 1.78073,-0.003 1.78073,-0.003 3.59742,-0.007 11.19681,-0.0203 22.39361,-0.0353 33.59043,-0.0451 5.75616,-0.005 11.5123,-0.0123 17.26845,-0.0236 5.55669,-0.0109 11.11338,-0.0168 16.67008,-0.0194 2.11824,-0.002 4.23647,-0.005 6.3547,-0.0109 2.9706,-0.007 5.94114,-0.008 8.91174,-0.008 0.87251,-0.004 1.74501,-0.007 2.64395,-0.0109 4.76211,0.008 9.2667,0.32604 13.96323,1.12442 0,1.32 0,2.64 0,4 -2.29654,1.14827 -3.58313,1.11561 -6.13281,1.09766 -0.80567,-0.003 -1.61133,-0.006 -2.44141,-0.01 -1.26264,-0.0126 -1.26264,-0.0126 -2.55078,-0.0254 -0.84949,-0.005 -1.69898,-0.009 -2.57422,-0.0137 -2.10029,-0.0118 -4.20054,-0.0297 -6.30078,-0.0488 -0.495,1.485 -0.495,1.485 -1,3 -2.28694,1.14347 -3.55791,1.12802 -6.09937,1.13372 -1.28715,0.006 -1.28715,0.006 -2.60031,0.0129 -0.94344,-4.5e-4 -1.88688,-9.1e-4 -2.85892,-0.001 -0.99194,0.003 -1.98388,0.007 -3.00589,0.0102 -3.29101,0.01 -6.58198,0.0115 -9.87301,0.0125 -2.27922,0.003 -4.55843,0.007 -6.83765,0.0101 -4.78166,0.006 -9.5633,0.008 -14.34497,0.007 -6.14065,-1.1e-4 -12.28118,0.0136 -18.4218,0.0308 -4.70788,0.0111 -9.41574,0.0131 -14.12364,0.0126 -2.26471,10e-4 -4.52943,0.006 -6.79413,0.0133 -3.16065,0.01 -6.32106,0.007 -9.48172,8.9e-4 -1.41516,0.008 -1.41516,0.008 -2.85892,0.017 -0.8581,-0.004 -1.7162,-0.008 -2.60031,-0.0127 -0.74774,5.5e-4 -1.49548,0.001 -2.26588,0.002 C 521,141 521,141 519,139 c -0.24889,-2.08615 -0.24889,-2.08615 -0.24724,-4.71351 -0.004,-0.99418 -0.008,-1.98835 -0.0127,-3.01265 0.006,-1.09463 0.0112,-2.18925 0.017,-3.31705 -0.002,-1.14961 -0.004,-2.29921 -0.006,-3.48366 -0.004,-3.81533 0.007,-7.63047 0.0182,-11.44579 10e-4,-2.64033 0.002,-5.28067 10e-4,-7.921 9.4e-4,-5.539134 0.01,-11.078212 0.0233,-16.617327 0.0157,-6.41204 0.021,-12.82402 0.0203,-19.236078 -6.1e-4,-6.159496 0.005,-12.318968 0.0128,-18.478458 0.003,-2.625585 0.005,-5.251172 0.006,-7.876759 0.002,-3.661331 0.0109,-7.322585 0.0216,-10.9839 -4.6e-4,-1.09665 -9.1e-4,-2.1933 -10e-4,-3.323181 0.004,-0.991355 0.009,-1.982709 0.0129,-3.004105 0.002,-0.866653 0.003,-1.733306 0.005,-2.626222 0.25609,-3.902734 2.65156,-3.088969 6.00363,-3.093123 z"
     fill="#e8e8e6"
     id="path6" />
  <path
     d="m 677,33 c 0,7.92 0,15.84 0,24 7.26,0 14.52,0 22,0 0.0206,2.949375 0.0412,5.89875 0.0625,8.9375 0.009,0.930623 0.0182,1.861245 0.0276,2.820068 0.002,0.728401 0.005,1.456802 0.008,2.207276 0.005,0.748865 0.0105,1.497729 0.0159,2.269287 C 699,75 699,75 698,76 c -1.56173,0.08686 -3.12729,0.107022 -4.69141,0.09766 -0.94423,-0.0032 -1.88847,-0.0064 -2.86132,-0.0098 -0.99323,-0.0084 -1.98645,-0.01676 -3.00977,-0.02539 -0.99709,-0.0045 -1.99418,-0.009 -3.02148,-0.01367 C 681.94395,76.037 679.472,76.020518 677,76 c 0.0441,5.481548 0.11397,10.961943 0.20752,16.442871 0.0282,1.864165 0.0494,3.728449 0.0635,5.592774 0.0214,2.681445 0.0681,5.361465 0.11963,8.042485 10e-4,0.83243 0.002,1.66486 0.004,2.52252 0.095,3.76111 0.17356,5.78816 2.3869,8.91888 2.3497,1.56784 3.53905,2.00533 6.32812,2.08985 0.68031,0.0306 1.36061,0.0612 2.06153,0.0928 0.8511,0.0158 1.7022,0.0316 2.5791,0.0478 4.08375,0.12375 4.08375,0.12375 8.25,0.25 0,6.26999 0,12.53999 0,19 -9.17872,3.67149 -22.45126,3.80195 -31.875,0.5 -5.79791,-2.93014 -9.81953,-7.65171 -12.5,-13.5 -1.41741,-6.80356 -1.76667,-13.38998 -1.72266,-20.3125 10e-4,-0.85433 0.003,-1.70866 0.004,-2.58887 0.005,-2.69958 0.0181,-5.399079 0.0309,-8.098635 0.005,-1.842447 0.01,-3.684895 0.0137,-5.527344 C 652.96213,84.981738 652.97936,80.490884 653,76 c -1.21559,0.0116 -2.43117,0.0232 -3.68359,0.03516 -1.58464,0.0094 -3.16927,0.01848 -4.75391,0.02734 -0.80244,0.0084 -1.60488,0.01676 -2.43164,0.02539 C 640.08705,76.09649 638.04316,76.05228 636,76 c -1,-1 -1,-1 -1.11352,-2.765869 0.005,-0.748865 0.0105,-1.49773 0.0159,-2.269287 0.003,-0.728401 0.005,-1.456802 0.008,-2.207276 0.009,-0.930622 0.0182,-1.861245 0.0276,-2.820068 0.0206,-2.949375 0.0412,-5.89875 0.0625,-8.9375 5.93999,0 11.88,0 18,0 0,-2.371875 0,-4.74375 0,-7.1875 C 653.3,42.927101 653.3,42.927101 655.46141,40.066406 657.586,38.743661 659.65571,37.878177 662,37 c 0.93586,-0.469219 1.87172,-0.938438 2.83594,-1.421875 C 672.34154,31.835385 672.34154,31.835385 677,33 Z"
     fill="#eeeeed"
     id="path7" />
  <path
     d="m 486.09375,54.867187 c 1.02996,-0.0013 2.05992,-0.0026 3.12109,-0.0039 1.62616,0.0058 1.62616,0.0058 3.28516,0.01172 1.0841,-0.0039 2.1682,-0.0077 3.28516,-0.01172 1.02996,0.0013 2.05992,0.0026 3.12109,0.0039 1.42796,0.0017 1.42796,0.0017 2.88477,0.0034 C 504,55 504,55 505,56 c 0.11103,2.575512 0.15739,5.124463 0.16113,7.700927 0.005,0.80648 0.01,1.61296 0.015,2.443878 0.0147,2.679605 0.0214,5.35915 0.0269,8.038788 0.006,1.85466 0.0115,3.70932 0.0173,5.56398 0.0105,3.893146 0.0164,7.786271 0.0198,11.679428 0.006,4.998446 0.0295,9.996619 0.058,14.994979 0.0186,3.83204 0.0238,7.66401 0.0254,11.4961 0.003,1.84327 0.0111,3.68654 0.0242,5.52976 0.017,2.57416 0.0152,5.14765 0.009,7.72184 0.009,0.76735 0.0184,1.5347 0.0279,2.3253 -0.0169,2.12024 -0.0169,2.12024 -0.38437,5.50502 -4.17143,2.78096 -7.59962,2.3307 -12.5,2.3125 -0.86754,0.0161 -1.73507,0.0322 -2.6289,0.0488 -0.83403,6.4e-4 -1.66805,0.001 -2.52735,0.002 -0.76119,0.003 -1.52238,0.006 -2.30664,0.009 -2.74621,-0.50192 -3.41323,-1.08197 -5.03711,-3.37232 -0.28567,-2.6952 -0.38935,-5.1575 -0.35644,-7.85205 -0.002,-0.79862 -0.004,-1.59725 -0.006,-2.42007 -0.003,-2.6413 0.0155,-5.28197 0.0345,-7.92319 0.003,-1.83177 0.005,-3.66355 0.006,-5.49533 0.005,-3.8384 0.019,-7.67659 0.0412,-11.51492 0.0283,-4.93114 0.0392,-9.862112 0.0437,-14.793324 0.004,-3.781392 0.014,-7.56275 0.0259,-11.344125 0.006,-1.81896 0.0105,-3.637922 0.0143,-5.456887 0.007,-2.535671 0.0205,-5.071209 0.0363,-7.606838 10e-4,-0.758452 0.002,-1.516904 0.003,-2.29834 0.0503,-6.047591 0.278,-6.420671 6.25149,-6.427749 z"
     fill="#e8e7e5"
     id="path8" />
  <path
     d="m 497,20 c 4.38254,2.191268 7.1667,4.416745 9,9 0.71533,4.768853 0.48848,8.057932 -1.75,12.375 -3.12135,3.641576 -4.87606,5.262071 -9.5625,6.5 -5.86754,0.1989 -9.25473,-1.625142 -13.625,-5.4375 -2.63547,-3.479171 -2.65616,-6.856026 -2.41406,-11.105469 0.69479,-4.608779 2.55039,-6.626239 5.97656,-9.644531 C 488.93938,19.530308 492.26396,19.159734 497,20 Z"
     fill="#e6e5e3"
     id="path9" />
</svg>
