<?xml version="1.0" encoding="UTF-8" standalone="no"?>
<svg
   version="1.1"
   width="1024"
   height="1024"
   id="svg419"
   sodipodi:docname="image6.svg"
   inkscape:version="1.4.2 (ebf0e940d0, 2025-05-08)"
   xmlns:inkscape="http://www.inkscape.org/namespaces/inkscape"
   xmlns:sodipodi="http://sodipodi.sourceforge.net/DTD/sodipodi-0.dtd"
   xmlns="http://www.w3.org/2000/svg"
   xmlns:svg="http://www.w3.org/2000/svg">
  <defs
     id="defs419" />
  <sodipodi:namedview
     id="namedview419"
     pagecolor="#ffffff"
     bordercolor="#000000"
     borderopacity="0.25"
     inkscape:showpageshadow="2"
     inkscape:pageopacity="0.0"
     inkscape:pagecheckerboard="0"
     inkscape:deskcolor="#d1d1d1"
     inkscape:zoom="0.72915766"
     inkscape:cx="532.12086"
     inkscape:cy="533.4923"
     inkscape:window-width="1422"
     inkscape:window-height="766"
     inkscape:window-x="0"
     inkscape:window-y="0"
     inkscape:window-maximized="1"
     inkscape:current-layer="svg419">
    <inkscape:page
       x="0"
       y="0"
       width="1024"
       height="1024"
       id="page2"
       margin="0"
       bleed="0" />
  </sodipodi:namedview>
  <path
     d="m 482.97925,369.14917 c 22.29355,8.67792 37.80225,7.19125 60.05225,-1.37939 7.93671,-3.04588 15.92224,-5.89395 23.97973,-8.6008 1.31252,-0.4415 2.62407,-0.88588 3.93457,-1.33332 6.68819,-2.28022 12.98537,-4.34983 20.0542,-4.83566 0.80567,-0.067 1.61133,-0.13406 2.44141,-0.20313 15.7247,-0.3475 30.4981,4.44244 42.24609,15.01563 0.76699,0.74895 1.53399,1.49789 2.32422,2.26953 2.03768,2.07977 2.03768,2.07977 4.98828,3.91797 0.97949,1.62122 1.9469,3.25143 2.83985,4.92188 1.13459,2.10612 1.13459,2.10612 2.53906,4.09374 3.50328,5.23206 5.6149,10.48282 7.44922,16.45313 0.38552,1.23844 0.38552,1.23844 0.77884,2.50189 2.7761,9.05674 5.1489,18.21621 7.51861,27.3858 4.11077,15.8719 8.46466,31.44021 14.23526,46.79981 0.77959,2.24885 1.28349,4.4916 1.63916,6.84375 -0.99,-0.51562 -1.98,-1.03125 -3,-1.5625 -6.2693,-2.66162 -11.5784,-0.65312 -17.62085,1.66211 -4.70063,1.77895 -9.44907,3.42483 -14.19165,5.08789 -1.03576,0.36803 -2.07152,0.73605 -3.13867,1.11523 -0.99193,0.34741 -1.98387,0.69481 -3.00586,1.05274 -1.34542,0.47409 -1.34542,0.47409 -2.71802,0.95776 C 634,492 634,492 631,492 c 0,0.66 0,1.32 0,2 -0.68916,0.12004 -1.37833,0.24009 -2.08838,0.36377 -3.2698,0.7145 -6.33324,1.72461 -9.49756,2.81592 -0.62,0.21343 -1.24001,0.42686 -1.87881,0.64676 -1.30656,0.45065 -2.61257,0.9029 -3.91806,1.35666 -1.97768,0.68685 -3.95742,1.36747 -5.9375,2.04736 -1.27617,0.44103 -2.55222,0.88243 -3.82813,1.32422 -1.14646,0.39687 -2.29292,0.79374 -3.47412,1.20263 -2.32883,0.85686 -4.63334,1.78184 -6.91357,2.76075 -3.21596,1.37587 -6.4171,2.54262 -9.73731,3.63818 -1.155,0.38285 -2.31,0.7657 -3.5,1.16016 -1.18851,0.39058 -2.37703,0.78117 -3.60156,1.18359 -1.18078,0.39059 -2.36156,0.78117 -3.57812,1.18359 C 569.69856,514.791 566.34933,515.89563 563,517 c -6.89446,2.27753 -13.76398,4.62366 -20.625,7 -1.4966,0.51434 -1.4966,0.51434 -3.02344,1.03906 C 534.13507,526.84689 529.05325,528.77963 524,531 c -13.15647,5.06947 -24.61623,1.34077 -37.23828,-3.91016 -3.81636,-1.50603 -7.70796,-2.75235 -11.60718,-4.02514 -5.20244,-1.714 -10.33607,-3.58586 -15.46704,-5.5022 -6.97456,-2.60009 -13.98543,-5.03682 -21.05566,-7.36304 -5.08594,-1.67582 -10.14716,-3.41031 -15.19434,-5.19946 -0.69247,-0.24541 -1.38493,-0.49081 -2.09839,-0.74365 -2.85862,-1.01511 -5.71601,-2.03362 -8.57251,-3.05469 C 404.56525,498.27109 396.39174,495.35051 388,493 c 0,-0.66 0,-1.32 0,-2 -1.26328,-0.25652 -2.52656,-0.51305 -3.82812,-0.77734 -5.4465,-1.21022 -10.6543,-2.96292 -15.92188,-4.78516 -1.82715,-0.62913 -3.65525,-1.25552 -5.48437,-1.87891 -1.19448,-0.41294 -1.19448,-0.41294 -2.41309,-0.83422 C 357.91928,481.97515 355.50306,481.4576 353,481 c 0,-0.66 0,-1.32 0,-2 -1.4835,0.42257 -2.96176,0.86356 -4.4375,1.3125 -0.82371,0.24363 -1.64742,0.48727 -2.49609,0.73828 -0.68192,0.31324 -1.36383,0.62649 -2.06641,0.94922 -1.12929,3.38787 -1.14771,6.00341 -1.177,9.57593 -0.007,0.66391 -0.0131,1.32782 -0.0199,2.01185 -0.0197,2.19861 -0.0314,4.39714 -0.0414,6.59581 -0.004,0.75455 -0.008,1.5091 -0.0123,2.28652 -0.0209,4.00142 -0.0352,8.0028 -0.0445,12.00426 -0.011,4.10521 -0.0453,8.20987 -0.0852,12.31489 -0.0263,3.17877 -0.0345,6.35742 -0.0381,9.53629 -0.005,1.51126 -0.0163,3.02252 -0.035,4.53367 -0.14912,12.85605 1.35418,24.43486 10.45348,34.14078 4.59223,4.63899 8.83459,7.81642 15,10 0,0.66 0,1.32 0,2 0.83789,0.25395 1.67578,0.50789 2.53906,0.76953 9.0759,3.22676 20.35461,8.5244 26.46094,16.23047 0,0.99 0,1.98 0,3 0.66,0 1.32,0 2,0 0.65044,1.72744 1.29515,3.45704 1.9375,5.1875 0.35965,0.96293 0.7193,1.92586 1.08985,2.91797 3.89434,11.58918 2.27996,23.3028 -2.96485,34.20703 -6.58162,12.67889 -17.96379,20.05171 -31.32812,24.42969 -14.82923,3.894 -31.30549,0.92153 -44.49781,-6.49073 -20.00773,-11.84397 -31.54121,-29.5119 -38.20532,-51.43896 -5.44788,-21.38799 -2.03819,-44.88636 6.96875,-64.8125 0.55108,-1.28197 0.55108,-1.28197 1.11328,-2.58984 5.68011,-12.35569 14.09466,-21.31171 25.15625,-28.98438 4.72866,-3.34252 7.21143,-6.17778 9.73047,-11.42578 0.66,0 1.32,0 2,0 0.10313,-0.51562 0.20625,-1.03125 0.3125,-1.5625 0.93014,-3.29776 2.30146,-6.30383 3.6875,-9.4375 0.66,0 1.32,0 2,0 0.10941,-0.68594 0.21882,-1.37188 0.33154,-2.07861 0.78122,-3.41419 2.0147,-6.43065 3.36377,-9.66358 3.41544,-8.34667 6.34252,-16.82497 9.17969,-25.38281 0.25658,-0.76949 0.51315,-1.53898 0.7775,-2.33179 5.2202,-15.69273 9.97071,-31.54402 13.85019,-47.62719 3.01776,-11.62662 7.80519,-22.95154 14.49731,-32.91602 0.35836,-0.5605 0.71672,-1.121 1.08594,-1.69849 2.98357,-4.47717 6.23394,-7.47193 10.66406,-10.48901 0.61762,-0.42926 1.23525,-0.85852 1.87158,-1.30078 6.99302,-4.76058 14.04438,-7.94909 22.37842,-9.51172 0.95906,-0.18563 0.95906,-0.18563 1.9375,-0.375 23.50745,-3.56175 45.71881,7.16955 67.04167,15.52417 z M 386.6875,413.125 c -6.89884,8.26208 -8.45698,17.63444 -8.13281,28.19141 1.2801,10.58889 6.42545,18.67844 14.50781,25.39843 7.44307,5.4361 16.66813,8.49421 25.9375,7.28516 11.17707,-1.84237 19.25538,-6.08207 26.4961,-14.85156 6.42981,-9.18546 7.92103,-19.88584 6.04296,-30.83594 C 448.96257,418.61276 443.26077,410.68944 435,405 c -16.73714,-9.44515 -35.33061,-5.07205 -48.3125,8.125 z m 191.81641,1.72266 C 572.18856,423.88599 571.18484,433.19618 572,444 c 2.26945,10.23198 8.22076,19.18742 17,25 5.10277,2.53922 10.29162,4.50362 16,5 1.17563,0.10313 2.35125,0.20625 3.5625,0.3125 10.65019,-0.18398 19.63757,-4.68832 27.11328,-11.9375 7.90398,-8.47275 9.83775,-18.21743 9.58985,-29.48438 C 644.53886,422.24567 639.86145,415.03587 632,408 c -17.27128,-13.07528 -39.807,-9.69995 -53.49609,6.84766 z"
     fill="#fefcf9"
     id="path1" />
  <path
     d="m 508.42432,228.68433 c 2.78988,0.005 5.57932,-0.002 8.36914,-0.0205 53.37332,-0.34548 101.49408,10.1526 140.70654,48.46118 33.02815,33.15985 40.56423,79.54193 42,124.5625 0.58262,17.61349 3.93628,33.61414 9.5,50.3125 0.22478,0.67467 0.44956,1.34933 0.68116,2.04444 1.35652,4.01806 2.80636,7.99383 4.31884,11.95556 0.39961,1.04672 0.79922,2.09344 1.21094,3.17188 3.12471,7.84163 7.11576,14.81817 11.78906,21.82812 0.67899,4.28707 0.67758,7.86168 -1.5625,11.625 C 723,504 723,504 719.5625,504.0625 713.26017,502.18286 710.2837,497.47284 707,492 c 0,-0.66 0,-1.32 0,-2 -0.66,-0.33 -1.32,-0.66 -2,-1 -3,-6.23077 -3,-6.23077 -3,-10 -0.66,-0.33 -1.32,-0.66 -2,-1 -1.6144,-3.3156 -2.75948,-6.84259 -4,-10.3125 -0.3901,-1.0907 -0.7802,-2.18141 -1.18213,-3.30517 -7.99881,-22.95023 -14.92202,-46.57532 -17.24755,-70.81983 -0.14837,-1.54167 -0.29681,-3.08334 -0.44532,-4.625 -0.0701,-0.75619 -0.14018,-1.51239 -0.2124,-2.2915 -0.85604,-8.43711 -2.54571,-16.71173 -4.23633,-25.01538 -0.21543,-1.06275 -0.43087,-2.1255 -0.65283,-3.22046 -0.19674,-0.94738 -0.39349,-1.89476 -0.59619,-2.87085 C 671,353 671,353 671,349 c -0.66,-0.33 -1.32,-0.66 -2,-1 -0.96484,-1.67187 -0.96484,-1.67187 -1.9375,-3.75 -0.53173,-1.08861 -0.53173,-1.08861 -1.07422,-2.19921 C 665.66215,341.37403 665.33602,340.69727 665,340 c -4.08889,-8.38223 -11.40602,-12.60658 -19.7847,-15.95728 -4.96544,-1.61029 -9.59069,-1.81942 -14.78073,-1.84472 -1.1741,-0.024 -2.34821,-0.048 -3.5579,-0.0727 -3.48813,-0.0599 -6.97459,-0.0934 -10.46308,-0.112 -2.56674,-0.0141 -5.1334,-0.0342 -7.7001,-0.0548 -14.01856,-0.10691 -28.03689,-0.12414 -42.0558,-0.1257 -3.64261,-7.2e-4 -7.28521,-0.003 -10.92782,-0.005 -12.74638,-0.009 -25.49276,-0.0133 -38.23914,-0.0125 -11.82682,6.1e-4 -23.6536,-0.01 -35.48041,-0.0257 -10.21644,-0.0131 -20.43287,-0.0184 -30.64932,-0.0178 -6.0755,2.6e-4 -12.15096,-0.002 -18.22645,-0.0132 -5.7032,-0.01 -11.40632,-0.01 -17.10952,-0.002 -2.07995,0.001 -4.15991,-10e-4 -6.23985,-0.007 -23.39101,-0.68489 -23.39101,-0.68489 -44.78518,7.25187 -0.64324,0.42024 -1.28648,0.84047 -1.94922,1.27344 -13.24797,9.94317 -14.05083,28.5033 -16.23852,43.60523 -0.95729,6.8557 -1.79152,13.70743 -2.41773,20.6018 -1.41783,15.16687 -4.28646,29.25429 -8.62158,43.85694 -1.02551,3.53262 -1.91214,7.08662 -2.77295,10.66259 -0.66,0 -1.32,0 -2,0 0.33,0.99 0.66,1.98 1,3 -0.78515,2.39063 -0.78515,2.39063 -2.0625,5.25 -2.06679,4.7479 -4.08011,9.5039 -6,14.3125 -0.25451,0.6339 -0.50901,1.2678 -0.77124,1.9209 -1.51999,3.81053 -2.93684,7.64457 -4.29126,11.5166 -1.54275,4.33656 -3.44512,8.09484 -5.875,12 -0.66,0 -1.32,0 -2,0 -0.20625,0.66 -0.4125,1.32 -0.625,2 -1.90312,4.15227 -4.09975,7.78444 -7.375,11 -3.77308,1.23601 -5.71617,1.46086 -9.4375,0.125 -2.54632,-3.463 -2.17664,-6.9711 -1.5625,-11.125 1.4032,-3.57795 3.31783,-6.80922 5.25,-10.125 17.38363,-31.61085 27.0424,-65.44989 28.29322,-101.41455 0.68977,-17.63318 2.41034,-35.49252 7.45678,-52.46045 0.20464,-0.68819 0.40928,-1.37639 0.62012,-2.08545 7.33424,-23.90478 21.19316,-45.78469 40.37988,-61.91455 0.86368,-0.76312 1.72735,-1.52625 2.61719,-2.3125 7.91209,-6.86143 16.31016,-12.46891 25.38281,-17.6875 0.60731,-0.35304 1.21462,-0.70608 1.84034,-1.06982 17.25839,-9.84242 37.51135,-16.31547 57.15966,-18.93018 0.65157,-0.0882 1.30313,-0.1763 1.97444,-0.26712 15.11457,-1.96192 30.23307,-2.07585 45.44988,-2.0485 z M 454,253 c 0,16.17 0,32.34 0,49 15.4345,0.20814 15.4345,0.20814 30.86914,0.4043 6.31459,0.0776 12.62915,0.15648 18.94361,0.2439 5.10284,0.0706 10.20572,0.13459 15.3087,0.1945 1.9264,0.0237 3.85279,0.0496 5.77913,0.0778 10.60952,0.15425 21.17965,0.0883 31.78277,-0.35047 0.98716,-0.0397 1.97431,-0.0794 2.99138,-0.12024 0.91481,-0.0426 1.82963,-0.0853 2.77216,-0.12916 0.80826,-0.0374 1.61652,-0.0749 2.44928,-0.11342 2.29408,-0.1475 2.29408,-0.1475 5.10383,-1.20725 0,-15.84 0,-31.68 0,-48 -7.88374,-0.023 -15.76737,-0.0429 -23.65112,-0.0549 -2.68198,-0.004 -5.36393,-0.0114 -8.0459,-0.0205 -3.8549,-0.0121 -7.70977,-0.0178 -11.56469,-0.0222 -1.19913,-0.005 -2.39826,-0.0103 -3.63372,-0.0156 -1.12078,-7e-5 -2.24157,-1.5e-4 -3.39631,-2.2e-4 -1.4756,-0.003 -1.4756,-0.003 -2.98101,-0.007 -2.67598,0.11799 -5.12059,0.52077 -7.72725,1.12025 0,-0.33 0,-0.66 0,-1 -18.15,0 -36.3,0 -55,0 z"
     fill="#fefaf6"
     id="path2" />
  <path
     d="m 661,504 c 0.10176,7.11657 0.17162,14.23296 0.21973,21.3501 0.0201,2.41901 0.0473,4.83798 0.082,7.25683 0.0487,3.48531 0.0713,6.96998 0.0889,10.45557 0.0206,1.07427 0.0413,2.14855 0.0626,3.25537 0.002,7.34729 -0.91733,13.10151 -6.30475,18.55713 C 650.22222,568 650.22222,568 648,568 c -0.33,0.66 -0.66,1.32 -1,2 -0.99,0 -1.98,0 -3,0 -0.33,0.66 -0.66,1.32 -1,2 -2.10414,1.04318 -4.23428,2.03412 -6.375,3 -13.33344,6.41627 -22.35641,16.5643 -27.96875,30.28516 -6.13886,17.69306 -4.74643,35.55846 3.28125,52.33984 2.28436,4.2839 4.88688,7.73238 8.0625,11.375 0,0.99 0,1.98 0,3 -0.9668,0.38672 -1.93359,0.77344 -2.92969,1.17187 -0.62479,0.25 -1.24958,0.5 -1.89331,0.75757 -1.38405,0.55346 -2.76833,1.10634 -4.15283,1.65869 -2.85339,1.13904 -5.70494,2.27972 -8.5437,3.45484 -6.55459,2.7045 -13.24677,4.99189 -19.94385,7.31348 -5.94749,2.06801 -11.82954,4.25186 -17.69678,6.53808 -8.07449,3.14317 -16.25708,5.95793 -24.46484,8.73047 -1.32451,0.45222 -1.32451,0.45222 -2.67578,0.91357 -0.86238,0.28892 -1.72477,0.57783 -2.61328,0.87549 -0.76264,0.25733 -1.52529,0.51466 -2.31104,0.77979 -3.87469,1.12565 -7.8361,1.93086 -11.7749,2.80615 0,-50.82 0,-101.64 0,-154 13.50124,-5.62552 13.50124,-5.62552 19.64844,-7.76953 0.67904,-0.23791 1.35809,-0.47582 2.05771,-0.72093 2.22177,-0.77742 4.44529,-1.54975 6.66885,-2.32204 1.59939,-0.55862 3.19867,-1.11755 4.79785,-1.67676 C 559.44662,538.66821 564.72304,536.83336 570,535 c 0.94952,-0.3299 1.89903,-0.6598 2.87732,-0.99969 2.96533,-1.03017 5.93072,-2.06017 8.89612,-3.09015 0.98883,-0.34352 1.97767,-0.68704 2.99647,-1.04097 4.96522,-1.72489 9.93073,-3.44889 14.89684,-5.17119 11.54317,-4.00718 23.06646,-8.05894 34.52173,-12.31226 0.8801,-0.32323 1.76021,-0.64646 2.66699,-0.97949 1.10831,-0.41282 1.10831,-0.41282 2.23901,-0.83398 C 641,510 641,510 644,510 c 0.33,-0.66 0.66,-1.32 1,-2 2.17969,-0.81641 2.17969,-0.81641 4.875,-1.5625 0.8843,-0.24879 1.76859,-0.49758 2.67969,-0.75391 1.21043,-0.33838 1.21043,-0.33838 2.44531,-0.68359 3,-1 3,-1 6,-1 z"
     fill="#fe8c04"
     id="path3" />
  <path
     d="m 362,504 c 1.89118,0.46258 3.78167,0.92798 5.67187,1.39453 1.57927,0.38829 1.57927,0.38829 3.19043,0.78443 4.12549,1.07952 8.11368,2.41263 12.1377,3.82104 0,0.66 0,1.32 0,2 0.546,0.1103 1.092,0.22059 1.65454,0.33423 5.57826,1.17616 10.89988,2.73835 16.28296,4.60327 4.85292,1.6553 9.69068,3.28764 14.625,4.6875 2.97944,0.8669 5.73052,1.90871 8.54053,3.22168 5.12714,2.31121 10.36789,4.162 15.68603,5.98144 1.02033,0.35271 2.04065,0.7054 3.09189,1.06879 3.24675,1.12142 6.49533,2.2374 9.74405,3.35309 2.12513,0.7327 4.25013,1.46577 6.375,2.19922 3.05096,1.05299 6.10204,2.10561 9.15421,3.15509 C 479.11312,544.3737 490.05388,548.19265 501,552 c 0,51.15 0,102.3 0,155 -4.76623,-0.68089 -8.1265,-1.2164 -12.46875,-2.77734 -0.98355,-0.3487 -1.96711,-0.69739 -2.98047,-1.05664 -1.00676,-0.36416 -2.01351,-0.72832 -3.05078,-1.10352 -9.16952,-3.28427 -9.16952,-3.28427 -18.5,-6.0625 0,-0.66 0,-1.32 0,-2 -1.25941,-0.24492 -2.51883,-0.48984 -3.81641,-0.74219 -5.59903,-1.24374 -10.80209,-3.26717 -16.12109,-5.38281 -1.86213,-0.73469 -3.72536,-1.4666 -5.58984,-2.19531 -0.81203,-0.32243 -1.62406,-0.64486 -2.4607,-0.97705 C 434.04049,683.8901 434.04049,683.8901 432,684 c 0,-0.66 0,-1.32 0,-2 -0.68063,0.0619 -1.36125,0.12375 -2.0625,0.1875 C 426.17562,681.94738 423.351,680.591 420,679 c -2.31233,-1.06286 -4.62485,-2.12534 -6.9375,-3.1875 -2.02126,-0.93657 -4.04224,-1.87376 -6.0625,-2.8125 0.44731,-0.66645 0.89461,-1.33289 1.35547,-2.01953 11.31451,-17.2492 17.38069,-35.20015 13.58203,-55.91797 C 419.58981,605.11543 415.48858,596.08741 408,589 c -0.70125,-0.94875 -1.4025,-1.8975 -2.125,-2.875 C 398.09929,576.80366 384.87286,572.60511 374,568 c 0,-0.66 0,-1.32 0,-2 -0.72188,-0.20625 -1.44375,-0.4125 -2.1875,-0.625 -4.73548,-2.31513 -7.12811,-5.47528 -8.86987,-10.31006 -1.36936,-4.9638 -1.19115,-9.91659 -1.13794,-15.02978 0.003,-1.03331 0.006,-2.06662 0.009,-3.13125 0.0111,-3.28059 0.0362,-6.5609 0.0617,-9.84141 0.01,-2.23242 0.0192,-4.46484 0.0273,-6.69727 0.022,-5.45517 0.0554,-10.91018 0.0977,-16.36523 z"
     fill="#fe8c05"
     id="path4" />
  <path
     d="m 646,689 c 2.1624,0.7008 4.32951,1.38718 6.5,2.0625 1.56234,0.5124 1.56234,0.5124 3.15625,1.03516 7.27414,1.96299 14.36371,2.03551 21.84375,1.96484 0.91781,-0.005 1.83563,-0.009 2.78125,-0.0137 2.23965,-0.0117 4.47916,-0.028 6.71875,-0.0488 -1.30374,5.09643 -3.15516,7.47031 -7,11 -1.20954,1.24379 -2.41209,2.4944 -3.60938,3.75 C 663.0026,722.56407 645.73595,739.75468 627,746 c -1.26844,-0.21656 -1.26844,-0.21656 -2.5625,-0.4375 -5.56238,-0.91021 -11.15194,-1.40209 -16.5,0.5625 -3.69735,1.10134 -5.83915,0.35363 -9.49609,-0.60547 C 592.92961,744.34662 587.42287,744.58291 582,746 c -4.20178,0.1715 -8.21133,-0.13584 -12.375,-0.625 -7.66944,-0.73643 -13.94303,0.7643 -20.625,4.625 -0.99,0.55687 -1.98,1.11375 -3,1.6875 -7.53206,5.80596 -10.71382,13.58814 -14,22.3125 -13.11591,1.65054 -27.13379,2.37474 -40,-1 -0.13148,-0.74637 -0.26297,-1.49273 -0.39844,-2.26172 C 489.9732,763.32607 485.58601,757.0476 480,752 c -2.60555,-1.56704 -5.21695,-2.75243 -8,-4 -0.33,-0.66 -0.66,-1.32 -1,-2 -2.49223,-0.34867 -4.86919,-0.56488 -7.375,-0.6875 -0.72155,-0.0412 -1.44311,-0.0825 -2.18652,-0.125 -5.14128,-0.24689 -10.09617,-0.0417 -15.2041,0.65625 C 443.86419,746.0095 442.287,745.58978 440,745 c -2.14351,-0.11771 -4.29079,-0.17509 -6.4375,-0.1875 -1.11246,-0.0142 -2.22492,-0.0284 -3.37109,-0.043 -3.18303,0.22986 -5.27839,1.0163 -8.19141,2.23047 -6.54545,-0.54546 -6.54545,-0.54546 -8,-2 -1.49718,-0.101 -2.99943,-0.12963 -4.5,-0.125 -0.90879,0 -1.81758,0 -2.75391,0 -2.50425,0.11399 -4.73491,0.50406 -7.18359,1 -6.0974,0.78781 -10.59323,-2.74399 -15.5625,-5.875 -1.39194,-0.7985 -2.78714,-1.59137 -4.1875,-2.375 -0.92813,-0.53625 -1.85625,-1.0725 -2.8125,-1.625 0,-0.66 0,-1.32 0,-2 -0.99,0 -1.98,0 -3,0 0,-0.66 0,-1.32 0,-2 -0.56977,-0.26039 -1.13953,-0.52078 -1.72656,-0.78906 C 367.73958,728.79599 363.94317,725.26278 360,722 c -0.5667,-0.46294 -1.13341,-0.92587 -1.71729,-1.40283 C 350.98241,714.61808 344.37028,708.84542 339,701 c -0.50273,-0.68449 -1.00547,-1.36898 -1.52344,-2.07422 C 334,694.19113 334,694.19113 334,693 c 0.59684,0.0722 1.19367,0.14437 1.80859,0.21875 15.32559,1.63959 31.19367,2.06966 45.69141,-3.96875 6.67748,-2.38482 12.84027,0.3872 19.1875,2.75 1.48248,0.54328 2.96554,1.085 4.44922,1.625 0.64671,0.23977 1.29341,0.47953 1.95972,0.72656 1.94917,0.66398 3.9,1.17669 5.90356,1.64844 0,0.66 0,1.32 0,2 1.18078,0.21527 2.36156,0.43055 3.57813,0.65234 6.9737,1.54956 13.53937,4.30933 20.17187,6.91016 1.95554,0.76381 3.91177,1.52565 5.86993,2.2827 1.76616,0.68319 3.52974,1.37302 5.29316,2.06325 2.71607,0.96042 5.2607,1.58289 8.08691,2.09155 1.485,0.495 1.485,0.495 3,1 0,0.66 0,1.32 0,2 1.28004,0.2591 2.56008,0.5182 3.87891,0.78516 5.17849,1.15156 10.07993,2.83877 15.05859,4.65234 5.91019,2.13538 11.82142,4.11333 17.85083,5.88599 2.59454,0.79362 5.08743,1.74702 7.58667,2.80151 5.39026,2.26496 8.21477,3.33612 13.875,1.24219 1.59449,-0.58008 1.59449,-0.58008 3.22119,-1.17188 1.16451,-0.4357 2.32902,-0.8714 3.52881,-1.32031 1.25269,-0.45944 2.50579,-0.91774 3.75928,-1.375 2.69246,-0.9836 5.38279,-1.97276 8.07177,-2.96582 4.08373,-1.50596 8.17559,-2.98866 12.27051,-4.46387 0.6879,-0.24783 1.37579,-0.49567 2.08454,-0.75102 1.42125,-0.51193 2.84254,-1.02379 4.26385,-1.53557 3.74942,-1.351 7.49729,-2.70631 11.24536,-4.06106 11.15076,-4.02901 22.30212,-8.05635 33.45575,-12.0774 2.21085,-0.79732 4.4215,-1.59516 6.63196,-2.39355 5.92489,-2.13985 11.85215,-4.27263 17.78653,-6.38605 1.51445,-0.5394 3.02833,-1.08042 4.54132,-1.6239 1.70081,-0.6089 3.40606,-1.20537 5.11179,-1.80035 0.85601,-0.30092 1.71203,-0.60183 2.59399,-0.91187 3.7496,-0.90941 6.72436,0.13249 10.18335,1.47046 z"
     fill="#fefaf6"
     id="path5" />
  <path
     d="m 681,488 c 1.5,1.375 1.5,1.375 3,3 0,0.66 0,1.32 0,2 0.66,0.33 1.32,0.66 2,1 1.03278,1.52759 2.00351,3.09758 2.9375,4.6875 0.53238,0.90492 1.06477,1.80984 1.61328,2.74219 1.08667,1.9273 2.09976,3.89641 3.07422,5.88281 3.38161,6.60951 7.5008,9.08707 14.01172,12.35547 C 710,521 710,521 711,523 c 1.485,0.495 1.485,0.495 3,1 0.33,0.66 0.66,1.32 1,2 0.73477,0.39703 1.46953,0.79406 2.22656,1.20312 3.59148,2.32688 5.66999,5.10249 8.14844,8.54688 0.47969,0.66612 0.95938,1.33225 1.45361,2.01855 14.0545,20.07786 20.24318,46.16583 16.35108,70.42408 C 739.31672,629.17952 729.36246,649.01726 712,662 696.64997,672.14663 680.56671,677.03713 662.09766,673.73828 657.54674,672.65364 653.11704,671.25206 649,669 c -0.495,-0.99 -0.495,-0.99 -1,-2 -0.7425,-0.28875 -1.485,-0.5775 -2.25,-0.875 -8.61107,-3.52271 -13.7147,-11.48013 -17.67188,-19.5 -4.26538,-10.38529 -5.08628,-23.6646 -1.17578,-34.35937 6.18359,-12.76329 15.76758,-18.7176 27.92481,-24.99805 11.59824,-6.02306 20.2059,-12.91469 24.44629,-25.6543 1.34605,-4.84145 1.84972,-9.2031 1.84009,-14.2395 1.4e-4,-0.64447 2.9e-4,-1.28893 4.4e-4,-1.95293 -6.9e-4,-2.11558 -0.008,-4.23107 -0.0163,-6.34663 -0.002,-1.47259 -0.003,-2.94518 -0.004,-4.41777 -0.004,-3.86497 -0.0136,-7.72991 -0.0247,-11.59487 -0.0103,-3.94825 -0.0148,-7.89652 -0.0198,-11.84478 C 681.03812,503.47785 681.02107,495.73893 681,488 Z"
     fill="#fefcfa"
     id="path6" />
  <path
     d="m 415.5,765.125 c 4.31532,1.51036 8.27547,0.28318 12.5,-1.125 6.20762,-0.58266 11.38054,0.10392 17.1875,2.34375 1.80465,0.76973 1.80465,0.76973 3.8125,0.65625 0.33,-0.66 0.66,-1.32 1,-2 3.63718,-1.57585 7.31236,-2.42566 11.19922,-1.44531 4.82635,2.22472 7.76795,5.12582 10.80078,9.44531 1.63509,4.90527 1.39375,8.77732 -0.1875,13.6875 -2.23022,4.07593 -4.68572,6.24911 -8.8125,8.3125 -5.0956,0.49251 -9.54373,0.42941 -14.25,-1.6875 -3.63819,-1.76341 -3.63819,-1.76341 -6.5625,0 -1.05188,0.55687 -2.10375,1.11375 -3.1875,1.6875 -5.16437,0.63574 -9.99583,0.81817 -14.625,-1.75 -3.15328,-1.58591 -3.15328,-1.58591 -5.41406,-0.48828 -0.72961,0.38801 -1.45922,0.77601 -2.21094,1.17578 -4.69981,2.39803 -8.05742,2.37967 -13.15234,1.13281 C 398.95654,793.15803 396.16599,790.53148 394,786 c -1.07808,-5.71979 -0.82302,-10.32456 1.75,-15.5625 2.00623,-2.17342 3.75019,-3.87512 6.25,-5.4375 0.59812,-0.4125 1.19625,-0.825 1.8125,-1.25 4.02737,-1.38081 7.89304,-0.33251 11.6875,1.375 z"
     fill="#fe8e0b"
     id="path7" />
  <path
     d="m 573.375,764 c 0.86625,0.33 1.7325,0.66 2.625,1 0,0.66 0,1.32 0,2 2.95755,-0.41268 5.53665,-0.7812 8.25,-2.0625 5.65553,-1.92802 11.4223,-1.76402 16.8125,0.8125 2.54349,1.11852 3.45466,1.41873 6.11719,0.48828 1.50783,-0.78522 3.01434,-1.57299 4.51953,-2.36328 4.95412,-1.88408 9.49908,0.41999 14.17578,2.25 3.63768,3.20972 4.76533,7.23904 5.41016,11.96484 0.26138,5.92088 -1.47477,9.8169 -5.28516,14.22266 -3.81128,3.21577 -7.75271,2.94348 -12.50391,2.92969 C 610.2391,794.92617 607.90118,793.45059 605,792 c -2.96387,0.68397 -5.29705,1.64853 -8,3 -5.07445,0.49047 -9.50978,0.44539 -14.1875,-1.6875 -3.34554,-1.44528 -3.54691,-1.41391 -7.25,0 -1.17562,0.55687 -2.35125,1.11375 -3.5625,1.6875 -4.65676,0.74707 -8.65784,0.50115 -12.875,-1.6875 -4.54344,-3.36214 -6.09456,-6.13575 -7,-11.625 -0.34965,-4.78387 0.12303,-8.67316 2.875,-12.6875 5.89609,-5.41148 10.58817,-7.30721 18.375,-5 z"
     fill="#fe8f0d"
     id="path8" />
  <path
     d="m 468,267 c 29.04,0 58.08,0 88,0 0,7.26 0,14.52 0,22 -29.04,0 -58.08,0 -88,0 0,-7.26 0,-14.52 0,-22 z"
     fill="#fe900f"
     id="path9" />
  <path
     d="m 308,355 c 0.13065,2.38819 0.18079,4.73581 0.1875,7.125 0.0445,0.66516 0.089,1.33031 0.13477,2.01562 -0.0351,2.38323 -0.25854,3.70539 -1.32227,5.85938 -2.53252,1.69015 -2.53252,1.69015 -5.58081,3.2417 -1.51391,0.78297 -1.51391,0.78297 -3.0584,1.58176 -0.77906,0.38826 -1.55812,0.77651 -2.36079,1.17654 -10e-4,0.92042 -0.003,1.84083 -0.004,2.78914 -0.0178,8.66713 -0.0594,17.33375 -0.12777,26.00063 -0.0343,4.45597 -0.0594,8.91159 -0.0635,13.3677 -0.004,4.29915 -0.0326,8.59752 -0.0779,12.89643 -0.013,1.64142 -0.0173,3.28294 -0.0127,4.92441 0.005,2.29691 -0.0211,4.59152 -0.0544,6.88814 -0.007,1.30794 -0.0133,2.61589 -0.0202,3.96346 C 295,450 295,450 292.58379,451.95366 290,453 290,453 288,452.875 c -6.19849,-2.71184 -6.19849,-2.71184 -8.13028,-5.51527 -1.20007,-3.25603 -1.1647,-6.37846 -1.16025,-9.80285 -0.007,-0.74357 -0.0134,-1.48715 -0.0204,-2.25326 -0.019,-2.45414 -0.0229,-4.90801 -0.0251,-7.36221 -0.006,-1.70867 -0.0132,-3.41733 -0.0202,-5.126 -0.012,-3.58018 -0.0157,-7.16026 -0.0145,-10.74046 2.1e-4,-4.58455 -0.0271,-9.16848 -0.0615,-13.75288 -0.0223,-3.5285 -0.0263,-7.05686 -0.0252,-10.58542 -0.002,-1.69008 -0.0112,-3.38016 -0.0267,-5.07018 -0.0196,-2.36509 -0.0138,-4.72884 -0.002,-7.09396 -0.0112,-0.69575 -0.0225,-1.39149 -0.0341,-2.10832 0.0614,-4.74797 1.17308,-7.12754 4.51992,-10.46419 2.31836,-1.302 2.31836,-1.302 4.84375,-2.23828 0.91652,-0.34483 1.83305,-0.68965 2.77734,-1.04492 0.95004,-0.33967 1.90008,-0.67934 2.87891,-1.0293 1.42506,-0.53851 1.42506,-0.53851 2.87891,-1.08789 C 300.5382,356.06401 303.51177,355 308,355 Z"
     fill="#fe8d0b"
     id="path10" />
  <path
     d="m 716,355 c 5.99369,0.6235 11.23101,2.84492 16.75,5.125 0.95777,0.36609 1.91555,0.73219 2.90234,1.10937 0.91395,0.37899 1.82789,0.75797 2.76953,1.14844 1.24669,0.50104 1.24669,0.50104 2.51856,1.01221 3.05495,2.38066 3.20152,4.88084 4.05957,8.60498 0.17442,2.4062 0.25567,4.8204 0.25879,7.23291 0.004,0.68549 0.007,1.37099 0.0106,2.07725 0.009,2.24308 0.003,4.48583 -0.004,6.7289 10e-4,1.56986 0.003,3.13971 0.006,4.70957 0.003,3.27979 -10e-4,6.55948 -0.0107,9.83926 -0.0114,4.19755 -0.005,8.39485 0.007,12.59239 0.007,3.23768 0.005,6.4753 -2.6e-4,9.71298 -10e-4,1.54771 3e-4,3.09543 0.005,4.64314 0.005,2.1633 -0.003,4.3262 -0.0138,6.48948 -0.002,1.84363 -0.002,1.84363 -0.005,3.72452 -0.33257,4.25529 -1.44136,7.09319 -3.87897,10.5621 -3.51949,2.50069 -6.12038,1.97114 -10.375,1.6875 -2.29876,-3.65553 -2.27417,-6.80369 -2.31885,-11.06348 -0.0151,-1.05426 -0.0151,-1.05426 -0.0304,-2.12982 -0.0308,-2.31577 -0.0479,-4.63142 -0.0648,-6.94733 -0.0187,-1.60855 -0.0383,-3.21709 -0.0587,-4.82562 -0.0513,-4.22823 -0.0909,-8.4565 -0.12814,-12.68487 -0.04,-4.3169 -0.0911,-8.63366 -0.1413,-12.95044 C 728.16107,392.93238 728.07666,384.46626 728,376 c -1.17369,-0.5066 -1.17369,-0.5066 -2.37109,-1.02344 -1.01192,-0.44601 -2.02383,-0.89203 -3.06641,-1.35156 -1.00934,-0.44086 -2.01867,-0.88172 -3.05859,-1.33594 C 717,371 717,371 716,369 c -0.25499,-1.99459 -0.45642,-3.99626 -0.625,-6 -0.0954,-1.0725 -0.19078,-2.145 -0.28906,-3.25 C 715,357 715,357 716,355 Z"
     fill="#fd9219"
     id="path11" />
  <path
     d="m 501.34375,432.60156 c 0.80611,-0.003 1.61221,-0.006 2.44275,-0.009 1.70122,-0.002 3.40246,0.003 5.10364,0.016 2.60095,0.0161 5.20036,1.5e-4 7.80127,-0.019 1.65495,0.002 3.3099,0.006 4.96484,0.0117 1.16421,-0.009 1.16421,-0.009 2.35193,-0.0184 3.11125,0.0404 5.64202,0.26598 8.5133,1.50424 2.34945,3.03923 1.94785,5.16252 1.47852,8.9126 -0.95775,2.75106 -2.24388,5.26496 -3.61328,7.83203 -0.37022,0.71782 -0.74044,1.43564 -1.12187,2.17521 -0.78098,1.5069 -1.56885,3.01023 -2.36324,4.51009 -1.21539,2.2976 -2.40663,4.60653 -3.59497,6.91821 -0.76358,1.46622 -1.52851,2.93174 -2.29492,4.39649 -0.35637,0.68955 -0.71274,1.3791 -1.07991,2.08955 -1.73391,3.25212 -2.80803,4.9959 -5.93181,7.07842 -2.4375,0.4375 -2.4375,0.4375 -5,0 -2.86368,-3.17787 -4.93424,-6.47622 -6.875,-10.27344 -0.51047,-0.99 -1.02094,-1.98 -1.54688,-3 -0.52078,-1.02352 -1.04156,-2.04703 -1.57812,-3.10156 -1.0404,-2.0293 -2.08204,-4.05796 -3.125,-6.08594 -0.49049,-0.95713 -0.98098,-1.91426 -1.48633,-2.90039 -1.18594,-2.25346 -2.42892,-4.44441 -3.73242,-6.63086 C 488.64182,442.34953 488.36707,440.11404 489,436 c 3.42323,-3.80519 7.57133,-3.43578 12.34375,-3.39844 z"
     fill="#f97928"
     id="path12" />
  <path
     d="m 283,363 c 0.99,0.33 1.98,0.66 3,1 -0.99,0.495 -0.99,0.495 -2,1 -0.68729,2.11846 -0.68729,2.11846 -1.125,4.5625 -0.16758,0.82629 -0.33516,1.65258 -0.50781,2.50391 -0.12117,0.63808 -0.24235,1.27617 -0.36719,1.93359 -0.66,0 -1.32,0 -2,0 0.33,24.09 0.66,48.18 1,73 -2.43533,-2.43533 -2.24919,-3.7549 -2.29327,-7.07982 9e-4,-0.70496 0.002,-1.40992 0.003,-2.13624 -0.007,-0.74329 -0.0134,-1.48658 -0.0204,-2.25238 -0.019,-2.46502 -0.0229,-4.92976 -0.0251,-7.39484 -0.006,-1.71152 -0.0132,-3.42305 -0.0202,-5.13457 -0.012,-3.59213 -0.0157,-7.18417 -0.0145,-10.77632 2e-4,-4.6003 -0.0271,-9.19998 -0.0615,-13.80014 -0.0223,-3.53708 -0.0263,-7.07402 -0.0252,-10.61117 -0.002,-1.69566 -0.0112,-3.39132 -0.0267,-5.08691 -0.0196,-2.3749 -0.0138,-4.74845 -0.002,-7.12336 -0.0112,-0.69889 -0.0225,-1.39778 -0.034,-2.11785 0.0611,-4.7506 1.22755,-7.10196 4.51989,-10.4864 z"
     fill="#f6a26c"
     id="path17" />
  <path
     d="m 451,767 c 2.2729,0.0382 4.54467,0.15602 6.8125,0.3125 1.24395,0.0786 2.48789,0.15727 3.76953,0.23828 3.0234,0.39736 4.86028,0.8708 7.41797,2.44922 -5.64399,2.44065 -10.97751,2.19289 -17,2 -0.66,-1.32 -1.32,-2.64 -2,-4 0.33,-0.33 0.66,-0.66 1,-1 z"
     fill="#fe8f23"
     id="path22" />
  <path
     d="m 595.1875,765.875 c 1.88719,0.0619 1.88719,0.0619 3.8125,0.125 -3,2 -3,2 -5,2 -0.33,1.65 -0.66,3.3 -1,5 2.97,0.495 2.97,0.495 6,1 -3.64418,2.42945 -5.71241,2.1618 -10,2 -0.33,-2.64 -0.66,-5.28 -1,-8 3.08889,-2.05926 3.70936,-2.23904 7.1875,-2.125 z"
     fill="#ff8d1d"
     id="path23" />
  <path
     d="m 284,364 c 0.33,0 0.66,0 1,0 -0.47265,8.89885 -1.96105,17.33125 -4,26 -0.33,0 -0.66,0 -1,0 0,-5.28 0,-10.56 0,-16 0.66,0 1.32,0 2,0 0.0606,-0.63809 0.12117,-1.27617 0.18359,-1.93359 0.0838,-0.82629 0.16758,-1.65258 0.25391,-2.50391 0.0812,-0.82371 0.16242,-1.64742 0.24609,-2.49609 C 283,365 283,365 284,364 Z"
     fill="#ff8d17"
     id="path24" />
  <path
     d="m 410.6875,786.9375 c 1.21236,0.0135 1.21236,0.0135 2.44922,0.0273 0.92232,0.0174 0.92232,0.0174 1.86328,0.0352 0,0.66 0,1.32 0,2 -4.76307,0.95261 -9.16665,1.08333 -14,1 3.02675,-3.02675 5.6,-3.12174 9.6875,-3.0625 z"
     fill="#ff8e22"
     id="path27" />
  <path
     d="m 283,363 c 0.99,0.33 1.98,0.66 3,1 -0.99,0.495 -0.99,0.495 -2,1 -0.68729,2.11846 -0.68729,2.11846 -1.125,4.5625 -0.16758,0.82629 -0.33516,1.65258 -0.50781,2.50391 -0.12117,0.63808 -0.24235,1.27617 -0.36719,1.93359 -0.66,0 -1.32,0 -2,0 -0.75,-2.6875 -0.75,-2.6875 -1,-6 1.9375,-2.875 1.9375,-2.875 4,-5 z"
     fill="#fc9b4d"
     id="path29" />
  <path
     d="m 507,257 c 2,1 2,1 2,1 z"
     fill="#fb7623"
     id="path169" />
  <path
     d="m 510,256 c 2,1 2,1 2,1 z"
     fill="#fa7724"
     id="path170" />
</svg>
